# MagicaVoxel @ Ephtracy

# group
o 

# material
mtllib dkrxmfldh.mtl
usemtl palette

# normals
vn -1 0 0
vn 1 0 0
vn 0 0 1
vn 0 0 -1
vn 0 -1 0
vn 0 1 0

# texcoords
vt 0.0488281 0.5
vt 0.373047 0.5
vt 0.958984 0.5
vt 0.974609 0.5
vt 0.982422 0.5
vt 0.994141 0.5

# verts
v -0.6 0 0.6
v -0.6 0 0.5
v -0.6 0 0.4
v -0.6 0.1 0.6
v -0.6 0.1 0.5
v -0.6 0.1 0.4
v -0.5 0 0.4
v -0.5 0 0.3
v -0.5 0.1 0.6
v -0.5 0.1 0.5
v -0.5 0.1 0.4
v -0.5 0.1 0.3
v -0.5 0.2 0.6
v -0.5 0.2 0.5
v -0.4 0 0.3
v -0.4 0 0.1
v -0.4 0 0
v -0.4 0 -0.1
v -0.4 0.1 0.5
v -0.4 0.1 0.4
v -0.4 0.1 0.3
v -0.4 0.1 0.1
v -0.4 0.1 0
v -0.4 0.1 -0.1
v -0.4 0.2 0.5
v -0.4 0.7 0.5
v -0.4 0.7 0.4
v -0.4 0.7 0.2
v -0.4 0.7 0.1
v -0.4 0.8 0.4
v -0.4 0.8 0.2
v -0.3 0 0.7
v -0.3 0 0.6
v -0.3 0 0.1
v -0.3 0 0
v -0.3 0 -0.1
v -0.3 0 -0.5
v -0.3 0.1 0.7
v -0.3 0.1 0.6
v -0.3 0.1 0.1
v -0.3 0.1 0
v -0.3 0.1 -0.1
v -0.3 0.1 -0.2
v -0.3 0.1 -0.4
v -0.3 0.1 -0.5
v -0.3 0.2 -0.2
v -0.3 0.2 -0.4
v -0.3 0.7 0.5
v -0.3 0.7 0.4
v -0.3 0.7 0.2
v -0.3 0.7 0.1
v -0.3 0.8 0.5
v -0.3 0.8 0.4
v -0.3 0.8 0.2
v -0.3 0.8 0.1
v -0.2 0.1 0
v -0.2 0.1 -0.2
v -0.2 0.1 -0.4
v -0.2 0.1 -0.5
v -0.2 0.2 -0.2
v -0.2 0.2 -0.4
v -0.2 0.2 -0.5
v -0.2 0.4 0.6
v -0.2 0.4 0.5
v -0.2 0.5 0.6
v -0.2 0.5 0.5
v -0.2 1.3 0
v -0.2 1.3 -0.1
v -0.2 1.3 -0.3
v -0.2 1.3 -0.4
v -0.2 1.4 -0.1
v -0.2 1.4 -0.3
v -0.1 0 -0.5
v -0.1 0 -0.6
v -0.1 0.1 -0.5
v -0.1 0.1 -0.6
v -0.1 1.3 0
v -0.1 1.3 -0.1
v -0.1 1.3 -0.3
v -0.1 1.3 -0.4
v -0.1 1.4 0
v -0.1 1.4 -0.1
v -0.1 1.4 -0.3
v -0.1 1.4 -0.4
v 0 1 0.1
v 0 1 0
v 0 1.1 0.1
v 0 1.1 0
v 0.1 0 0.7
v 0.1 0 0.6
v 0.1 0.1 0.7
v 0.1 0.1 0.6
v 0.2 0.1 0.6
v 0.2 0.1 0.1
v 0.2 0.1 -0.4
v 0.2 0.1 -0.5
v 0.2 0.2 -0.4
v 0.2 0.2 -0.5
v 0.2 0.9 0.6
v 0.2 0.9 0.5
v 0.2 0.9 0.2
v 0.2 0.9 0.1
v 0.2 1 0.5
v 0.2 1 0.2
v 0.3 0.9 0.6
v 0.3 0.9 0.5
v 0.3 0.9 0.2
v 0.3 0.9 0.1
v 0.3 1 0.6
v 0.3 1 0.5
v 0.3 1 0.2
v 0.3 1 0.1
v 0.4 0.6 0.7
v 0.4 0.6 0.6
v 0.4 0.7 0.7
v 0.4 0.7 0.6
v 0.5 0 0.7
v 0.5 0 0.6
v 0.5 0.2 0.7
v 0.5 0.2 0.6
v -0.4 0.1 0.6
v -0.4 0.1 0.5
v -0.4 0.2 0.6
v -0.4 0.2 0.5
v -0.1 0 0.7
v -0.1 0 0.6
v -0.1 0.1 0.7
v -0.1 0.1 0.6
v -0.1 0.1 -0.4
v -0.1 0.1 -0.5
v -0.1 0.2 -0.4
v -0.1 0.2 -0.5
v -0.1 0.4 0.6
v -0.1 0.4 0.5
v -0.1 0.5 0.6
v -0.1 0.5 0.5
v 0 0.7 0.5
v 0 0.7 0.4
v 0 0.7 0.2
v 0 0.7 0.1
v 0 0.8 0.5
v 0 0.8 0.4
v 0 0.8 0.2
v 0 0.8 0.1
v 0.1 0 -0.5
v 0.1 0 -0.6
v 0.1 0.1 0.5
v 0.1 0.1 0.1
v 0.1 0.1 -0.5
v 0.1 0.1 -0.6
v 0.1 0.7 0.5
v 0.1 0.7 0.4
v 0.1 0.7 0.2
v 0.1 0.7 0.1
v 0.1 0.8 0.4
v 0.1 0.8 0.2
v 0.1 1 0.1
v 0.1 1 0
v 0.1 1.1 0.1
v 0.1 1.1 0
v 0.2 1.3 0
v 0.2 1.3 -0.1
v 0.2 1.3 -0.3
v 0.2 1.3 -0.4
v 0.2 1.4 0
v 0.2 1.4 -0.1
v 0.2 1.4 -0.3
v 0.2 1.4 -0.4
v 0.3 0.1 0
v 0.3 0.1 -0.1
v 0.3 0.1 -0.2
v 0.3 0.1 -0.4
v 0.3 0.1 -0.5
v 0.3 0.2 -0.1
v 0.3 0.2 -0.2
v 0.3 0.2 -0.4
v 0.3 0.2 -0.5
v 0.3 1.3 0
v 0.3 1.3 -0.1
v 0.3 1.3 -0.3
v 0.3 1.3 -0.4
v 0.3 1.4 -0.1
v 0.3 1.4 -0.3
v 0.4 0 0.7
v 0.4 0 0.6
v 0.4 0 -0.1
v 0.4 0 -0.2
v 0.4 0 -0.4
v 0.4 0 -0.5
v 0.4 0.1 0.7
v 0.4 0.1 0.6
v 0.4 0.1 -0.1
v 0.4 0.1 -0.2
v 0.4 0.1 -0.4
v 0.4 0.1 -0.5
v 0.4 0.2 -0.1
v 0.4 0.2 -0.2
v 0.5 0 0
v 0.5 0 -0.1
v 0.5 0 -0.2
v 0.5 0 -0.4
v 0.5 0.1 0
v 0.5 0.1 -0.1
v 0.5 0.1 -0.2
v 0.5 0.1 -0.4
v 0.5 0.6 0.7
v 0.5 0.6 0.6
v 0.5 0.7 0.7
v 0.5 0.7 0.6
v 0.6 0.1 0.7
v 0.6 0.1 0.6
v 0.6 0.2 0.7
v 0.6 0.2 0.6
v 0.6 0.9 0.6
v 0.6 0.9 0.5
v 0.6 0.9 0.2
v 0.6 0.9 0.1
v 0.6 1 0.6
v 0.6 1 0.5
v 0.6 1 0.2
v 0.6 1 0.1
v 0.7 0 0.7
v 0.7 0 0.6
v 0.7 0 0.1
v 0.7 0 0
v 0.7 0.1 0.7
v 0.7 0.1 0.6
v 0.7 0.1 0.5
v 0.7 0.1 0.3
v 0.7 0.1 0.2
v 0.7 0.1 0.1
v 0.7 0.1 0
v 0.7 0.2 0.6
v 0.7 0.2 0.5
v 0.7 0.2 0.3
v 0.7 0.2 0.2
v 0.7 0.9 0.6
v 0.7 0.9 0.5
v 0.7 0.9 0.2
v 0.7 0.9 0.1
v 0.7 1 0.5
v 0.7 1 0.2
v 0.8 0 0.6
v 0.8 0 0.5
v 0.8 0 0.4
v 0.8 0 0.3
v 0.8 0 0.1
v 0.8 0.1 0.6
v 0.8 0.1 0.5
v 0.8 0.1 0.4
v 0.8 0.1 0.3
v 0.8 0.1 0.2
v 0.8 0.1 0.1
v 0.8 0.2 0.6
v 0.8 0.2 0.5
v 0.8 0.2 0.3
v 0.8 0.2 0.2
v 0.9 0 0.4
v 0.9 0 0.3
v 0.9 0.1 0.4
v 0.9 0.1 0.3
v -0.3 0 0.7
v -0.3 0.1 0.7
v -0.1 0 0.7
v -0.1 0.1 0.7
v 0.1 0 0.7
v 0.1 0.1 0.7
v 0.3 0 0.7
v 0.3 0.1 0.7
v 0.4 0 0.7
v 0.4 0.1 0.7
v 0.4 0.6 0.7
v 0.4 0.7 0.7
v 0.5 0 0.7
v 0.5 0.2 0.7
v 0.5 0.6 0.7
v 0.5 0.7 0.7
v 0.6 0.1 0.7
v 0.6 0.2 0.7
v 0.7 0 0.7
v 0.7 0.1 0.7
v -0.6 0 0.6
v -0.6 0.1 0.6
v -0.5 0 0.6
v -0.5 0.1 0.6
v -0.5 0.2 0.6
v -0.4 0 0.6
v -0.4 0.1 0.6
v -0.4 0.2 0.6
v -0.3 0 0.6
v -0.3 0.1 0.6
v -0.2 0.4 0.6
v -0.2 0.5 0.6
v -0.1 0 0.6
v -0.1 0.1 0.6
v -0.1 0.4 0.6
v -0.1 0.5 0.6
v 0 0 0.6
v 0 0.1 0.6
v 0.1 0 0.6
v 0.1 0.1 0.6
v 0.2 0.1 0.6
v 0.2 0.9 0.6
v 0.3 0.1 0.6
v 0.3 0.7 0.6
v 0.3 0.8 0.6
v 0.3 0.9 0.6
v 0.3 1 0.6
v 0.4 0 0.6
v 0.4 0.1 0.6
v 0.4 0.2 0.6
v 0.4 0.6 0.6
v 0.4 0.7 0.6
v 0.4 0.8 0.6
v 0.4 0.9 0.6
v 0.5 0 0.6
v 0.5 0.2 0.6
v 0.5 0.6 0.6
v 0.5 0.7 0.6
v 0.5 0.8 0.6
v 0.5 0.9 0.6
v 0.6 0.1 0.6
v 0.6 0.2 0.6
v 0.6 0.7 0.6
v 0.6 0.8 0.6
v 0.6 0.9 0.6
v 0.6 1 0.6
v 0.7 0 0.6
v 0.7 0.1 0.6
v 0.7 0.2 0.6
v 0.7 0.9 0.6
v 0.8 0 0.6
v 0.8 0.1 0.6
v 0.8 0.2 0.6
v -0.4 0.1 0.5
v -0.4 0.2 0.5
v -0.4 0.7 0.5
v -0.3 0.1 0.5
v -0.3 0.5 0.5
v -0.3 0.6 0.5
v -0.3 0.7 0.5
v -0.3 0.8 0.5
v -0.2 0.4 0.5
v -0.2 0.5 0.5
v -0.2 0.6 0.5
v -0.2 0.7 0.5
v -0.1 0.4 0.5
v -0.1 0.5 0.5
v -0.1 0.6 0.5
v -0.1 0.7 0.5
v 0 0.1 0.5
v 0 0.5 0.5
v 0 0.6 0.5
v 0 0.7 0.5
v 0 0.8 0.5
v 0.1 0.1 0.5
v 0.1 0.7 0.5
v 0.2 0.9 0.5
v 0.2 1 0.5
v 0.3 0.9 0.5
v 0.3 1 0.5
v 0.6 0.9 0.5
v 0.6 1 0.5
v 0.7 0.9 0.5
v 0.7 1 0.5
v -0.4 0.7 0.4
v -0.4 0.8 0.4
v -0.3 0.7 0.4
v -0.3 0.8 0.4
v 0 0.7 0.4
v 0 0.8 0.4
v 0.1 0.7 0.4
v 0.1 0.8 0.4
v 0.8 0 0.4
v 0.8 0.1 0.4
v 0.9 0 0.4
v 0.9 0.1 0.4
v 0.7 0.1 0.3
v 0.7 0.2 0.3
v 0.8 0.1 0.3
v 0.8 0.2 0.3
v 0 1 0.1
v 0 1.1 0.1
v 0.1 1 0.1
v 0.1 1.1 0.1
v -0.4 0 0
v -0.4 0.1 0
v -0.3 0 0
v -0.3 0.1 0
v -0.2 0.1 0
v -0.2 1.3 0
v -0.1 1.1 0
v -0.1 1.2 0
v -0.1 1.3 0
v -0.1 1.4 0
v 0 1 0
v 0 1.1 0
v 0 1.2 0
v 0 1.3 0
v 0.1 1 0
v 0.1 1.1 0
v 0.1 1.2 0
v 0.1 1.3 0
v 0.2 1.1 0
v 0.2 1.2 0
v 0.2 1.3 0
v 0.2 1.4 0
v 0.3 0.1 0
v 0.3 1.3 0
v -0.2 1.3 -0.1
v -0.2 1.4 -0.1
v -0.1 1.3 -0.1
v -0.1 1.4 -0.1
v 0.2 1.3 -0.1
v 0.2 1.4 -0.1
v 0.3 0.1 -0.1
v 0.3 0.2 -0.1
v 0.3 1.3 -0.1
v 0.3 1.4 -0.1
v 0.4 0.1 -0.1
v 0.4 0.2 -0.1
v -0.3 0.1 -0.2
v -0.3 0.2 -0.2
v -0.2 0.1 -0.2
v -0.2 0.2 -0.2
v 0.4 0 -0.2
v 0.4 0.1 -0.2
v 0.5 0 -0.2
v 0.5 0.1 -0.2
v -0.5 0.1 0.5
v -0.5 0.2 0.5
v -0.4 0.1 0.5
v -0.4 0.2 0.5
v 0.7 0.1 0.5
v 0.7 0.2 0.5
v 0.8 0.1 0.5
v 0.8 0.2 0.5
v -0.6 0 0.4
v -0.6 0.1 0.4
v -0.5 0 0.4
v -0.5 0.1 0.4
v -0.5 0 0.3
v -0.5 0.1 0.3
v -0.4 0 0.3
v -0.4 0.1 0.3
v 0.8 0 0.3
v 0.8 0.1 0.3
v 0.9 0 0.3
v 0.9 0.1 0.3
v -0.4 0.7 0.2
v -0.4 0.8 0.2
v -0.3 0.7 0.2
v -0.3 0.8 0.2
v 0 0.7 0.2
v 0 0.8 0.2
v 0.1 0.7 0.2
v 0.1 0.8 0.2
v 0.2 0.9 0.2
v 0.2 1 0.2
v 0.3 0.9 0.2
v 0.3 1 0.2
v 0.6 0.9 0.2
v 0.6 1 0.2
v 0.7 0.1 0.2
v 0.7 0.2 0.2
v 0.7 0.9 0.2
v 0.7 1 0.2
v 0.8 0.1 0.2
v 0.8 0.2 0.2
v -0.4 0 0.1
v -0.4 0.1 0.1
v -0.4 0.7 0.1
v -0.3 0 0.1
v -0.3 0.1 0.1
v -0.3 0.7 0.1
v -0.3 0.8 0.1
v -0.2 0.1 0.1
v -0.2 0.3 0.1
v -0.1 0.1 0.1
v -0.1 0.3 0.1
v 0 0.7 0.1
v 0 0.8 0.1
v 0.1 0.1 0.1
v 0.1 0.7 0.1
v 0.2 0.1 0.1
v 0.2 0.9 0.1
v 0.3 0.9 0.1
v 0.3 1 0.1
v 0.4 0.1 0.1
v 0.4 0.3 0.1
v 0.5 0.1 0.1
v 0.5 0.3 0.1
v 0.6 0.9 0.1
v 0.6 1 0.1
v 0.7 0 0.1
v 0.7 0.1 0.1
v 0.7 0.9 0.1
v 0.8 0 0.1
v 0.8 0.1 0.1
v 0.5 0 0
v 0.5 0.1 0
v 0.7 0 0
v 0.7 0.1 0
v -0.4 0 -0.1
v -0.4 0.1 -0.1
v -0.3 0 -0.1
v -0.3 0.1 -0.1
v 0.4 0 -0.1
v 0.4 0.1 -0.1
v 0.5 0 -0.1
v 0.5 0.1 -0.1
v 0.3 0.1 -0.2
v 0.3 0.2 -0.2
v 0.4 0.1 -0.2
v 0.4 0.2 -0.2
v -0.2 1.3 -0.3
v -0.2 1.4 -0.3
v -0.1 1.3 -0.3
v -0.1 1.4 -0.3
v 0.2 1.3 -0.3
v 0.2 1.4 -0.3
v 0.3 1.3 -0.3
v 0.3 1.4 -0.3
v -0.3 0.1 -0.4
v -0.3 0.2 -0.4
v -0.2 0.1 -0.4
v -0.2 0.2 -0.4
v -0.2 1.3 -0.4
v -0.1 0.1 -0.4
v -0.1 0.2 -0.4
v -0.1 1.3 -0.4
v -0.1 1.4 -0.4
v 0 0.1 -0.4
v 0 0.3 -0.4
v 0.1 0.1 -0.4
v 0.1 0.3 -0.4
v 0.2 0.1 -0.4
v 0.2 0.2 -0.4
v 0.2 1.3 -0.4
v 0.2 1.4 -0.4
v 0.3 0.2 -0.4
v 0.3 1.3 -0.4
v 0.4 0 -0.4
v 0.4 0.1 -0.4
v 0.5 0 -0.4
v 0.5 0.1 -0.4
v -0.3 0 -0.5
v -0.3 0.1 -0.5
v -0.2 0.1 -0.5
v -0.2 0.2 -0.5
v -0.1 0 -0.5
v -0.1 0.1 -0.5
v -0.1 0.2 -0.5
v 0.1 0 -0.5
v 0.1 0.1 -0.5
v 0.2 0.1 -0.5
v 0.2 0.2 -0.5
v 0.3 0 -0.5
v 0.3 0.1 -0.5
v 0.3 0.2 -0.5
v 0.4 0 -0.5
v 0.4 0.1 -0.5
v -0.1 0 -0.6
v -0.1 0.1 -0.6
v 0.1 0 -0.6
v 0.1 0.1 -0.6
v -0.3 0 0.7
v -0.1 0 0.7
v 0.1 0 0.7
v 0.3 0 0.7
v 0.4 0 0.7
v 0.5 0 0.7
v 0.7 0 0.7
v -0.6 0 0.6
v -0.5 0 0.6
v -0.4 0 0.6
v -0.3 0 0.6
v -0.1 0 0.6
v 0 0 0.6
v 0.1 0 0.6
v 0.3 0 0.6
v 0.4 0 0.6
v 0.5 0 0.6
v 0.7 0 0.6
v 0.8 0 0.6
v -0.6 0 0.5
v -0.5 0 0.5
v -0.4 0 0.5
v -0.3 0 0.5
v 0 0 0.5
v 0.1 0 0.5
v 0.7 0 0.5
v 0.8 0 0.5
v -0.6 0 0.4
v -0.5 0 0.4
v -0.4 0 0.4
v 0.8 0 0.4
v 0.9 0 0.4
v -0.5 0 0.3
v -0.4 0 0.3
v 0.8 0 0.3
v 0.9 0 0.3
v -0.4 0 0.1
v -0.3 0 0.1
v 0.7 0 0.1
v 0.8 0 0.1
v -0.4 0 0
v -0.3 0 0
v 0.5 0 0
v 0.7 0 0
v -0.4 0 -0.1
v -0.3 0 -0.1
v 0.4 0 -0.1
v 0.5 0 -0.1
v 0.4 0 -0.2
v 0.5 0 -0.2
v 0 0 -0.4
v 0.1 0 -0.4
v 0.3 0 -0.4
v 0.4 0 -0.4
v 0.5 0 -0.4
v -0.3 0 -0.5
v -0.1 0 -0.5
v 0 0 -0.5
v 0.1 0 -0.5
v 0.3 0 -0.5
v 0.4 0 -0.5
v -0.1 0 -0.6
v 0.1 0 -0.6
v -0.2 0.4 0.6
v -0.1 0.4 0.6
v -0.2 0.4 0.5
v -0.1 0.4 0.5
v 0.4 0.6 0.7
v 0.5 0.6 0.7
v 0.4 0.6 0.6
v 0.5 0.6 0.6
v 0 1 0.1
v 0.1 1 0.1
v 0 1 0
v 0.1 1 0
v -0.3 0.1 0.7
v -0.1 0.1 0.7
v 0.1 0.1 0.7
v 0.3 0.1 0.7
v 0.4 0.1 0.7
v 0.6 0.1 0.7
v 0.7 0.1 0.7
v -0.6 0.1 0.6
v -0.5 0.1 0.6
v -0.4 0.1 0.6
v -0.3 0.1 0.6
v -0.1 0.1 0.6
v 0 0.1 0.6
v 0.1 0.1 0.6
v 0.2 0.1 0.6
v 0.3 0.1 0.6
v 0.4 0.1 0.6
v 0.6 0.1 0.6
v 0.7 0.1 0.6
v -0.6 0.1 0.5
v -0.5 0.1 0.5
v -0.4 0.1 0.5
v -0.3 0.1 0.5
v 0 0.1 0.5
v 0.1 0.1 0.5
v 0.7 0.1 0.5
v 0.8 0.1 0.5
v -0.6 0.1 0.4
v -0.5 0.1 0.4
v -0.4 0.1 0.4
v 0.8 0.1 0.4
v 0.9 0.1 0.4
v -0.5 0.1 0.3
v -0.4 0.1 0.3
v 0.7 0.1 0.3
v 0.8 0.1 0.3
v 0.9 0.1 0.3
v 0.7 0.1 0.2
v 0.8 0.1 0.2
v -0.3 0.1 0.1
v -0.2 0.1 0.1
v -0.1 0.1 0.1
v 0.1 0.1 0.1
v 0.2 0.1 0.1
v 0.4 0.1 0.1
v 0.5 0.1 0.1
v 0.7 0.1 0.1
v 0.8 0.1 0.1
v -0.4 0.1 0
v -0.3 0.1 0
v -0.2 0.1 0
v 0.3 0.1 0
v 0.5 0.1 0
v 0.7 0.1 0
v -0.4 0.1 -0.1
v -0.3 0.1 -0.1
v 0.3 0.1 -0.1
v 0.4 0.1 -0.1
v 0.5 0.1 -0.1
v -0.3 0.1 -0.2
v -0.2 0.1 -0.2
v 0.3 0.1 -0.2
v 0.4 0.1 -0.2
v 0.5 0.1 -0.2
v -0.3 0.1 -0.4
v -0.2 0.1 -0.4
v -0.1 0.1 -0.4
v 0 0.1 -0.4
v 0.1 0.1 -0.4
v 0.2 0.1 -0.4
v 0.3 0.1 -0.4
v 0.4 0.1 -0.4
v 0.5 0.1 -0.4
v -0.3 0.1 -0.5
v -0.2 0.1 -0.5
v -0.1 0.1 -0.5
v 0 0.1 -0.5
v 0.1 0.1 -0.5
v 0.2 0.1 -0.5
v 0.3 0.1 -0.5
v 0.4 0.1 -0.5
v -0.1 0.1 -0.6
v 0.1 0.1 -0.6
v 0.5 0.2 0.7
v 0.6 0.2 0.7
v -0.5 0.2 0.6
v -0.4 0.2 0.6
v 0.5 0.2 0.6
v 0.6 0.2 0.6
v 0.7 0.2 0.6
v 0.8 0.2 0.6
v -0.5 0.2 0.5
v -0.4 0.2 0.5
v 0.7 0.2 0.5
v 0.8 0.2 0.5
v 0.7 0.2 0.3
v 0.8 0.2 0.3
v 0.7 0.2 0.2
v 0.8 0.2 0.2
v 0.3 0.2 -0.1
v 0.4 0.2 -0.1
v -0.3 0.2 -0.2
v -0.2 0.2 -0.2
v 0.3 0.2 -0.2
v 0.4 0.2 -0.2
v -0.3 0.2 -0.4
v -0.2 0.2 -0.4
v -0.1 0.2 -0.4
v 0.2 0.2 -0.4
v 0.3 0.2 -0.4
v -0.2 0.2 -0.5
v -0.1 0.2 -0.5
v 0.2 0.2 -0.5
v 0.3 0.2 -0.5
v -0.2 0.5 0.6
v -0.1 0.5 0.6
v -0.2 0.5 0.5
v -0.1 0.5 0.5
v 0.4 0.7 0.7
v 0.5 0.7 0.7
v 0.4 0.7 0.6
v 0.5 0.7 0.6
v -0.4 0.7 0.5
v -0.3 0.7 0.5
v 0 0.7 0.5
v 0.1 0.7 0.5
v -0.4 0.7 0.4
v -0.3 0.7 0.4
v 0 0.7 0.4
v 0.1 0.7 0.4
v -0.4 0.7 0.2
v -0.3 0.7 0.2
v 0 0.7 0.2
v 0.1 0.7 0.2
v -0.4 0.7 0.1
v -0.3 0.7 0.1
v 0 0.7 0.1
v 0.1 0.7 0.1
v -0.3 0.8 0.5
v 0 0.8 0.5
v -0.4 0.8 0.4
v -0.3 0.8 0.4
v 0 0.8 0.4
v 0.1 0.8 0.4
v -0.4 0.8 0.2
v -0.3 0.8 0.2
v 0 0.8 0.2
v 0.1 0.8 0.2
v -0.3 0.8 0.1
v 0 0.8 0.1
v 0.2 0.9 0.6
v 0.3 0.9 0.6
v 0.6 0.9 0.6
v 0.7 0.9 0.6
v 0.2 0.9 0.5
v 0.3 0.9 0.5
v 0.6 0.9 0.5
v 0.7 0.9 0.5
v 0.2 0.9 0.2
v 0.3 0.9 0.2
v 0.6 0.9 0.2
v 0.7 0.9 0.2
v 0.2 0.9 0.1
v 0.3 0.9 0.1
v 0.6 0.9 0.1
v 0.7 0.9 0.1
v 0.3 1 0.6
v 0.6 1 0.6
v 0.2 1 0.5
v 0.3 1 0.5
v 0.6 1 0.5
v 0.7 1 0.5
v 0.2 1 0.2
v 0.3 1 0.2
v 0.6 1 0.2
v 0.7 1 0.2
v 0.3 1 0.1
v 0.6 1 0.1
v 0 1.1 0.1
v 0.1 1.1 0.1
v 0 1.1 0
v 0.1 1.1 0
v -0.2 1.3 0
v -0.1 1.3 0
v 0.2 1.3 0
v 0.3 1.3 0
v -0.2 1.3 -0.1
v -0.1 1.3 -0.1
v 0.2 1.3 -0.1
v 0.3 1.3 -0.1
v -0.2 1.3 -0.3
v -0.1 1.3 -0.3
v 0.2 1.3 -0.3
v 0.3 1.3 -0.3
v -0.2 1.3 -0.4
v -0.1 1.3 -0.4
v 0.2 1.3 -0.4
v 0.3 1.3 -0.4
v -0.1 1.4 0
v 0.2 1.4 0
v -0.2 1.4 -0.1
v -0.1 1.4 -0.1
v 0.2 1.4 -0.1
v 0.3 1.4 -0.1
v -0.2 1.4 -0.3
v -0.1 1.4 -0.3
v 0.2 1.4 -0.3
v 0.3 1.4 -0.3
v -0.1 1.4 -0.4
v 0.2 1.4 -0.4

# faces
f 4/4/1 2/4/1 1/4/1
f 5/5/1 3/5/1 2/5/1
f 5/4/1 2/4/1 4/4/1
f 6/5/1 3/5/1 5/5/1
f 11/4/1 8/4/1 7/4/1
f 12/4/1 8/4/1 11/4/1
f 13/5/1 10/5/1 9/5/1
f 14/5/1 10/5/1 13/5/1
f 21/5/1 16/5/1 15/5/1
f 22/5/1 16/5/1 21/5/1
f 23/4/1 18/4/1 17/4/1
f 24/4/1 18/4/1 23/4/1
f 25/2/1 20/2/1 19/2/1
f 25/2/1 22/2/1 21/2/1
f 25/2/1 21/2/1 20/2/1
f 26/2/1 22/2/1 25/2/1
f 27/2/1 22/2/1 26/2/1
f 28/2/1 22/2/1 27/2/1
f 29/2/1 22/2/1 28/2/1
f 30/2/1 28/2/1 27/2/1
f 31/2/1 28/2/1 30/2/1
f 38/5/1 33/5/1 32/5/1
f 39/5/1 33/5/1 38/5/1
f 40/5/1 35/5/1 34/5/1
f 41/5/1 35/5/1 40/5/1
f 42/5/1 37/5/1 36/5/1
f 43/5/1 37/5/1 42/5/1
f 44/5/1 37/5/1 43/5/1
f 45/5/1 37/5/1 44/5/1
f 46/5/1 44/5/1 43/5/1
f 47/5/1 44/5/1 46/5/1
f 52/2/1 49/2/1 48/2/1
f 53/2/1 49/2/1 52/2/1
f 54/2/1 51/2/1 50/2/1
f 55/2/1 51/2/1 54/2/1
f 60/2/1 57/2/1 56/2/1
f 61/5/1 59/5/1 58/5/1
f 62/5/1 59/5/1 61/5/1
f 65/1/1 64/1/1 63/1/1
f 66/1/1 64/1/1 65/1/1
f 67/2/1 60/2/1 56/2/1
f 67/2/1 61/2/1 60/2/1
f 68/2/1 61/2/1 67/2/1
f 69/2/1 61/2/1 68/2/1
f 70/2/1 61/2/1 69/2/1
f 71/2/1 69/2/1 68/2/1
f 72/2/1 69/2/1 71/2/1
f 75/5/1 74/5/1 73/5/1
f 76/5/1 74/5/1 75/5/1
f 81/2/1 78/2/1 77/2/1
f 82/2/1 78/2/1 81/2/1
f 83/2/1 80/2/1 79/2/1
f 84/2/1 80/2/1 83/2/1
f 87/1/1 86/1/1 85/1/1
f 88/1/1 86/1/1 87/1/1
f 91/5/1 90/5/1 89/5/1
f 92/5/1 90/5/1 91/5/1
f 97/5/1 96/5/1 95/5/1
f 98/5/1 96/5/1 97/5/1
f 99/2/1 94/2/1 93/2/1
f 100/2/1 94/2/1 99/2/1
f 101/2/1 94/2/1 100/2/1
f 102/2/1 94/2/1 101/2/1
f 103/2/1 101/2/1 100/2/1
f 104/2/1 101/2/1 103/2/1
f 109/2/1 106/2/1 105/2/1
f 110/2/1 106/2/1 109/2/1
f 111/2/1 108/2/1 107/2/1
f 112/2/1 108/2/1 111/2/1
f 115/1/1 114/1/1 113/1/1
f 116/1/1 114/1/1 115/1/1
f 119/5/1 118/5/1 117/5/1
f 120/5/1 118/5/1 119/5/1
f 121/5/2 122/5/2 123/5/2
f 123/5/2 122/5/2 124/5/2
f 125/5/2 126/5/2 127/5/2
f 127/5/2 126/5/2 128/5/2
f 129/5/2 130/5/2 131/5/2
f 131/5/2 130/5/2 132/5/2
f 133/1/2 134/1/2 135/1/2
f 135/1/2 134/1/2 136/1/2
f 137/2/2 138/2/2 141/2/2
f 141/2/2 138/2/2 142/2/2
f 139/2/2 140/2/2 143/2/2
f 143/2/2 140/2/2 144/2/2
f 145/5/2 146/5/2 149/5/2
f 149/5/2 146/5/2 150/5/2
f 147/2/2 148/2/2 151/2/2
f 151/2/2 148/2/2 152/2/2
f 152/2/2 148/2/2 153/2/2
f 153/2/2 148/2/2 154/2/2
f 152/2/2 153/2/2 155/2/2
f 155/2/2 153/2/2 156/2/2
f 157/1/2 158/1/2 159/1/2
f 159/1/2 158/1/2 160/1/2
f 161/2/2 162/2/2 165/2/2
f 165/2/2 162/2/2 166/2/2
f 163/2/2 164/2/2 167/2/2
f 167/2/2 164/2/2 168/2/2
f 169/2/2 170/2/2 174/2/2
f 171/2/2 172/2/2 175/2/2
f 172/5/2 173/5/2 176/5/2
f 175/2/2 172/2/2 176/2/2
f 176/5/2 173/5/2 177/5/2
f 174/2/2 175/2/2 178/2/2
f 169/2/2 174/2/2 178/2/2
f 175/2/2 176/2/2 178/2/2
f 178/2/2 176/2/2 179/2/2
f 179/2/2 176/2/2 180/2/2
f 180/2/2 176/2/2 181/2/2
f 179/2/2 180/2/2 182/2/2
f 182/2/2 180/2/2 183/2/2
f 184/4/2 185/4/2 190/4/2
f 190/4/2 185/4/2 191/4/2
f 186/5/2 187/5/2 192/5/2
f 192/5/2 187/5/2 193/5/2
f 188/4/2 189/4/2 194/4/2
f 194/4/2 189/4/2 195/4/2
f 192/5/2 193/5/2 196/5/2
f 196/5/2 193/5/2 197/5/2
f 198/5/2 199/5/2 202/5/2
f 202/5/2 199/5/2 203/5/2
f 200/5/2 201/5/2 204/5/2
f 204/5/2 201/5/2 205/5/2
f 206/1/2 207/1/2 208/1/2
f 208/1/2 207/1/2 209/1/2
f 210/5/2 211/5/2 212/5/2
f 212/5/2 211/5/2 213/5/2
f 214/2/2 215/2/2 218/2/2
f 218/2/2 215/2/2 219/2/2
f 216/2/2 217/2/2 220/2/2
f 220/2/2 217/2/2 221/2/2
f 222/5/2 223/5/2 226/5/2
f 226/5/2 223/5/2 227/5/2
f 224/5/2 225/5/2 231/5/2
f 231/5/2 225/5/2 232/5/2
f 228/2/2 229/2/2 234/2/2
f 234/2/2 229/2/2 235/2/2
f 230/2/2 231/2/2 236/2/2
f 234/2/2 235/2/2 237/2/2
f 235/2/2 236/2/2 237/2/2
f 233/2/2 234/2/2 237/2/2
f 237/2/2 236/2/2 238/2/2
f 236/2/2 231/2/2 239/2/2
f 238/2/2 236/2/2 239/2/2
f 239/2/2 231/2/2 240/2/2
f 238/2/2 239/2/2 241/2/2
f 241/2/2 239/2/2 242/2/2
f 243/4/2 244/4/2 248/4/2
f 244/5/2 245/5/2 249/5/2
f 248/4/2 244/4/2 249/4/2
f 249/5/2 245/5/2 250/5/2
f 246/5/2 247/5/2 251/5/2
f 251/5/2 247/5/2 252/5/2
f 252/5/2 247/5/2 253/5/2
f 248/5/2 249/5/2 254/5/2
f 254/5/2 249/5/2 255/5/2
f 251/5/2 252/5/2 256/5/2
f 256/5/2 252/5/2 257/5/2
f 258/5/2 259/5/2 260/5/2
f 260/5/2 259/5/2 261/5/2
f 264/5/3 263/5/3 262/5/3
f 265/5/3 263/5/3 264/5/3
f 268/5/3 267/5/3 266/5/3
f 269/5/3 267/5/3 268/5/3
f 270/4/3 269/4/3 268/4/3
f 271/4/3 269/4/3 270/4/3
f 276/1/3 273/1/3 272/1/3
f 277/1/3 273/1/3 276/1/3
f 278/5/3 275/5/3 274/5/3
f 279/5/3 275/5/3 278/5/3
f 280/5/3 278/5/3 274/5/3
f 281/5/3 278/5/3 280/5/3
f 284/4/3 283/4/3 282/4/3
f 285/4/3 283/4/3 284/4/3
f 287/5/3 285/5/3 284/5/3
f 287/5/3 286/5/3 285/5/3
f 288/5/3 286/5/3 287/5/3
f 289/5/3 286/5/3 288/5/3
f 290/4/3 288/4/3 287/4/3
f 291/4/3 288/4/3 290/4/3
f 296/1/3 293/1/3 292/1/3
f 297/1/3 293/1/3 296/1/3
f 298/5/3 295/5/3 294/5/3
f 299/5/3 295/5/3 298/5/3
f 300/4/3 299/4/3 298/4/3
f 301/4/3 299/4/3 300/4/3
f 304/2/3 303/2/3 302/2/3
f 305/2/3 303/2/3 304/2/3
f 306/2/3 303/2/3 305/2/3
f 307/2/3 303/2/3 306/2/3
f 310/2/3 305/2/3 304/2/3
f 311/2/3 305/2/3 310/2/3
f 312/2/3 305/2/3 311/2/3
f 313/6/3 306/6/3 305/6/3
f 313/2/3 305/2/3 312/2/3
f 314/3/3 307/3/3 306/3/3
f 314/6/3 306/6/3 313/6/3
f 315/2/3 308/2/3 307/2/3
f 315/3/3 307/3/3 314/3/3
f 316/5/3 310/5/3 309/5/3
f 316/5/3 311/5/3 310/5/3
f 317/2/3 312/2/3 311/2/3
f 317/5/3 311/5/3 316/5/3
f 318/2/3 312/2/3 317/2/3
f 319/2/3 314/2/3 313/2/3
f 319/2/3 315/2/3 314/2/3
f 320/2/3 315/2/3 319/2/3
f 321/2/3 308/2/3 315/2/3
f 321/2/3 315/2/3 320/2/3
f 323/2/3 318/2/3 317/2/3
f 323/2/3 319/2/3 318/2/3
f 324/6/3 320/6/3 319/6/3
f 324/2/3 319/2/3 323/2/3
f 325/3/3 321/3/3 320/3/3
f 325/6/3 320/6/3 324/6/3
f 326/2/3 308/2/3 321/2/3
f 326/3/3 321/3/3 325/3/3
f 327/2/3 308/2/3 326/2/3
f 329/2/3 324/2/3 323/2/3
f 329/2/3 323/2/3 322/2/3
f 329/2/3 326/2/3 325/2/3
f 329/2/3 325/2/3 324/2/3
f 330/2/3 326/2/3 329/2/3
f 331/2/3 326/2/3 330/2/3
f 332/4/3 329/4/3 328/4/3
f 333/5/3 330/5/3 329/5/3
f 333/4/3 329/4/3 332/4/3
f 334/5/3 330/5/3 333/5/3
f 338/2/3 336/2/3 335/2/3
f 338/2/3 337/2/3 336/2/3
f 339/2/3 337/2/3 338/2/3
f 340/2/3 337/2/3 339/2/3
f 341/2/3 337/2/3 340/2/3
f 343/2/3 339/2/3 338/2/3
f 344/6/3 340/6/3 339/6/3
f 344/2/3 339/2/3 343/2/3
f 345/3/3 341/3/3 340/3/3
f 345/6/3 340/6/3 344/6/3
f 346/2/3 342/2/3 341/2/3
f 346/3/3 341/3/3 345/3/3
f 347/2/3 343/2/3 338/2/3
f 348/2/3 345/2/3 344/2/3
f 348/2/3 346/2/3 345/2/3
f 349/2/3 346/2/3 348/2/3
f 350/2/3 342/2/3 346/2/3
f 350/2/3 346/2/3 349/2/3
f 351/2/3 347/2/3 338/2/3
f 351/2/3 348/2/3 347/2/3
f 352/6/3 349/6/3 348/6/3
f 352/2/3 348/2/3 351/2/3
f 353/3/3 350/3/3 349/3/3
f 353/6/3 349/6/3 352/6/3
f 354/2/3 342/2/3 350/2/3
f 354/3/3 350/3/3 353/3/3
f 355/2/3 342/2/3 354/2/3
f 356/2/3 353/2/3 352/2/3
f 356/2/3 352/2/3 351/2/3
f 356/2/3 354/2/3 353/2/3
f 357/2/3 354/2/3 356/2/3
f 360/2/3 359/2/3 358/2/3
f 361/2/3 359/2/3 360/2/3
f 364/2/3 363/2/3 362/2/3
f 365/2/3 363/2/3 364/2/3
f 368/2/3 367/2/3 366/2/3
f 369/2/3 367/2/3 368/2/3
f 372/2/3 371/2/3 370/2/3
f 373/2/3 371/2/3 372/2/3
f 376/5/3 375/5/3 374/5/3
f 377/5/3 375/5/3 376/5/3
f 380/5/3 379/5/3 378/5/3
f 381/5/3 379/5/3 380/5/3
f 384/1/3 383/1/3 382/1/3
f 385/1/3 383/1/3 384/1/3
f 388/4/3 387/4/3 386/4/3
f 389/4/3 387/4/3 388/4/3
f 392/2/3 391/2/3 390/2/3
f 393/2/3 391/2/3 392/2/3
f 394/2/3 391/2/3 393/2/3
f 396/2/3 392/2/3 390/2/3
f 397/6/3 393/6/3 392/6/3
f 397/2/3 392/2/3 396/2/3
f 398/3/3 394/3/3 393/3/3
f 398/6/3 393/6/3 397/6/3
f 399/2/3 395/2/3 394/2/3
f 399/3/3 394/3/3 398/3/3
f 400/2/3 396/2/3 390/2/3
f 401/2/3 398/2/3 397/2/3
f 401/2/3 399/2/3 398/2/3
f 402/2/3 399/2/3 401/2/3
f 403/2/3 395/2/3 399/2/3
f 403/2/3 399/2/3 402/2/3
f 404/6/3 402/6/3 401/6/3
f 404/2/3 401/2/3 400/2/3
f 405/3/3 403/3/3 402/3/3
f 405/6/3 402/6/3 404/6/3
f 406/2/3 395/2/3 403/2/3
f 406/3/3 403/3/3 405/3/3
f 407/2/3 395/2/3 406/2/3
f 408/2/3 400/2/3 390/2/3
f 408/2/3 405/2/3 404/2/3
f 408/2/3 406/2/3 405/2/3
f 408/2/3 404/2/3 400/2/3
f 409/2/3 406/2/3 408/2/3
f 412/2/3 411/2/3 410/2/3
f 413/2/3 411/2/3 412/2/3
f 418/2/3 415/2/3 414/2/3
f 419/2/3 415/2/3 418/2/3
f 420/5/3 417/5/3 416/5/3
f 421/5/3 417/5/3 420/5/3
f 424/5/3 423/5/3 422/5/3
f 425/5/3 423/5/3 424/5/3
f 428/5/3 427/5/3 426/5/3
f 429/5/3 427/5/3 428/5/3
f 430/5/4 431/5/4 432/5/4
f 432/5/4 431/5/4 433/5/4
f 434/5/4 435/5/4 436/5/4
f 436/5/4 435/5/4 437/5/4
f 438/5/4 439/5/4 440/5/4
f 440/5/4 439/5/4 441/5/4
f 442/4/4 443/4/4 444/4/4
f 444/4/4 443/4/4 445/4/4
f 446/5/4 447/5/4 448/5/4
f 448/5/4 447/5/4 449/5/4
f 450/2/4 451/2/4 452/2/4
f 452/2/4 451/2/4 453/2/4
f 454/2/4 455/2/4 456/2/4
f 456/2/4 455/2/4 457/2/4
f 458/2/4 459/2/4 460/2/4
f 460/2/4 459/2/4 461/2/4
f 462/2/4 463/2/4 466/2/4
f 466/2/4 463/2/4 467/2/4
f 464/5/4 465/5/4 468/5/4
f 468/5/4 465/5/4 469/5/4
f 470/5/4 471/5/4 473/5/4
f 471/2/4 472/2/4 474/2/4
f 473/5/4 471/5/4 474/5/4
f 474/2/4 472/2/4 475/2/4
f 475/2/4 476/2/4 477/2/4
f 474/2/4 475/2/4 477/2/4
f 477/2/4 476/2/4 478/2/4
f 477/6/4 478/6/4 479/6/4
f 478/2/4 476/2/4 480/2/4
f 479/6/4 478/6/4 480/6/4
f 479/2/4 480/2/4 481/2/4
f 480/2/4 476/2/4 481/2/4
f 481/2/4 476/2/4 482/2/4
f 479/2/4 481/2/4 483/2/4
f 483/2/4 481/2/4 484/2/4
f 485/2/4 486/2/4 487/2/4
f 485/2/4 487/2/4 489/2/4
f 487/2/4 488/2/4 489/2/4
f 489/2/4 488/2/4 490/2/4
f 489/6/4 490/6/4 491/6/4
f 490/2/4 488/2/4 492/2/4
f 491/6/4 490/6/4 492/6/4
f 491/2/4 492/2/4 493/2/4
f 492/2/4 488/2/4 493/2/4
f 493/2/4 488/2/4 494/2/4
f 491/2/4 493/2/4 496/2/4
f 496/2/4 493/2/4 497/2/4
f 495/5/4 496/5/4 498/5/4
f 498/5/4 496/5/4 499/5/4
f 500/5/4 501/5/4 502/5/4
f 502/5/4 501/5/4 503/5/4
f 504/4/4 505/4/4 506/4/4
f 506/4/4 505/4/4 507/4/4
f 508/5/4 509/5/4 510/5/4
f 510/5/4 509/5/4 511/5/4
f 512/5/4 513/5/4 514/5/4
f 514/5/4 513/5/4 515/5/4
f 516/2/4 517/2/4 518/2/4
f 518/2/4 517/2/4 519/2/4
f 520/2/4 521/2/4 522/2/4
f 522/2/4 521/2/4 523/2/4
f 524/5/4 525/5/4 526/5/4
f 526/5/4 525/5/4 527/5/4
f 527/2/4 528/2/4 530/2/4
f 530/2/4 528/2/4 531/2/4
f 529/2/4 530/2/4 533/2/4
f 531/2/4 532/2/4 533/2/4
f 530/2/4 531/2/4 533/2/4
f 533/2/4 532/2/4 534/2/4
f 533/6/4 534/6/4 535/6/4
f 534/2/4 532/2/4 536/2/4
f 535/6/4 534/6/4 536/6/4
f 535/2/4 536/2/4 537/2/4
f 537/2/4 536/2/4 538/2/4
f 536/2/4 532/2/4 539/2/4
f 538/2/4 536/2/4 539/2/4
f 539/2/4 532/2/4 540/2/4
f 538/2/4 539/2/4 541/2/4
f 541/2/4 539/2/4 542/2/4
f 543/5/4 544/5/4 545/5/4
f 545/5/4 544/5/4 546/5/4
f 547/5/4 548/5/4 549/5/4
f 547/5/4 549/5/4 551/5/4
f 549/5/4 550/5/4 551/5/4
f 551/5/4 550/5/4 552/5/4
f 552/5/4 550/5/4 553/5/4
f 554/5/4 555/5/4 556/5/4
f 554/5/4 556/5/4 558/5/4
f 556/5/4 557/5/4 558/5/4
f 558/5/4 557/5/4 559/5/4
f 559/5/4 557/5/4 560/5/4
f 558/4/4 559/4/4 561/4/4
f 561/4/4 559/4/4 562/4/4
f 563/5/4 564/5/4 565/5/4
f 565/5/4 564/5/4 566/5/4
f 577/5/5 568/5/5 567/5/5
f 578/5/5 568/5/5 577/5/5
f 580/5/5 570/5/5 569/5/5
f 581/4/5 571/4/5 570/4/5
f 581/5/5 570/5/5 580/5/5
f 582/4/5 571/4/5 581/4/5
f 583/5/5 573/5/5 572/5/5
f 584/5/5 573/5/5 583/5/5
f 586/4/5 575/4/5 574/4/5
f 587/5/5 576/5/5 575/5/5
f 587/4/5 575/4/5 586/4/5
f 588/4/5 577/4/5 576/4/5
f 588/5/5 576/5/5 587/5/5
f 589/5/5 579/5/5 578/5/5
f 589/4/5 577/4/5 588/4/5
f 589/5/5 578/5/5 577/5/5
f 590/4/5 580/4/5 579/4/5
f 590/5/5 579/5/5 589/5/5
f 591/5/5 582/5/5 581/5/5
f 591/4/5 580/4/5 590/4/5
f 591/5/5 584/5/5 583/5/5
f 591/5/5 583/5/5 582/5/5
f 591/5/5 581/5/5 580/5/5
f 592/4/5 585/4/5 584/4/5
f 592/5/5 584/5/5 591/5/5
f 593/4/5 585/4/5 592/4/5
f 594/5/5 588/5/5 587/5/5
f 594/5/5 589/5/5 588/5/5
f 594/5/5 593/5/5 592/5/5
f 594/5/5 592/5/5 591/5/5
f 594/5/5 590/5/5 589/5/5
f 594/5/5 591/5/5 590/5/5
f 594/5/5 587/5/5 586/5/5
f 595/5/5 593/5/5 594/5/5
f 596/5/5 593/5/5 595/5/5
f 597/5/5 593/5/5 596/5/5
f 599/4/5 596/4/5 595/4/5
f 600/5/5 597/5/5 596/5/5
f 600/4/5 596/4/5 599/4/5
f 600/5/5 598/5/5 597/5/5
f 601/5/5 598/5/5 600/5/5
f 602/5/5 598/5/5 601/5/5
f 603/5/5 601/5/5 600/5/5
f 604/5/5 601/5/5 603/5/5
f 605/5/5 601/5/5 604/5/5
f 606/5/5 601/5/5 605/5/5
f 608/5/5 605/5/5 604/5/5
f 609/5/5 605/5/5 608/5/5
f 610/5/5 605/5/5 609/5/5
f 611/4/5 608/4/5 607/4/5
f 612/5/5 609/5/5 608/5/5
f 612/4/5 608/4/5 611/4/5
f 613/5/5 609/5/5 612/5/5
f 614/5/5 609/5/5 613/5/5
f 615/5/5 613/5/5 612/5/5
f 617/5/5 615/5/5 612/5/5
f 617/5/5 616/5/5 615/5/5
f 618/5/5 616/5/5 617/5/5
f 619/5/5 616/5/5 618/5/5
f 620/5/5 616/5/5 619/5/5
f 621/5/5 616/5/5 620/5/5
f 622/5/5 617/5/5 612/5/5
f 623/5/5 617/5/5 622/5/5
f 624/4/5 618/4/5 617/4/5
f 624/5/5 617/5/5 623/5/5
f 625/5/5 619/5/5 618/5/5
f 625/4/5 618/4/5 624/4/5
f 626/4/5 620/4/5 619/4/5
f 626/5/5 619/5/5 625/5/5
f 627/4/5 620/4/5 626/4/5
f 628/5/5 624/5/5 623/5/5
f 628/5/5 625/5/5 624/5/5
f 629/5/5 625/5/5 628/5/5
f 632/1/5 631/1/5 630/1/5
f 633/1/5 631/1/5 632/1/5
f 636/1/5 635/1/5 634/1/5
f 637/1/5 635/1/5 636/1/5
f 640/1/5 639/1/5 638/1/5
f 641/1/5 639/1/5 640/1/5
f 642/5/6 643/5/6 652/5/6
f 652/5/6 643/5/6 653/5/6
f 644/5/6 645/5/6 655/5/6
f 655/5/6 645/5/6 656/5/6
f 645/4/6 646/4/6 657/4/6
f 656/5/6 645/5/6 657/5/6
f 657/4/6 646/4/6 658/4/6
f 647/5/6 648/5/6 659/5/6
f 659/5/6 648/5/6 660/5/6
f 649/4/6 650/4/6 661/4/6
f 661/4/6 650/4/6 662/4/6
f 651/4/6 652/4/6 663/4/6
f 653/5/6 654/5/6 664/5/6
f 652/5/6 653/5/6 664/5/6
f 663/4/6 652/4/6 664/4/6
f 654/4/6 655/4/6 665/4/6
f 664/5/6 654/5/6 665/5/6
f 655/5/6 656/5/6 666/5/6
f 665/4/6 655/4/6 666/4/6
f 662/5/6 663/5/6 669/5/6
f 661/5/6 662/5/6 669/5/6
f 669/5/6 663/5/6 670/5/6
f 670/5/6 663/5/6 671/5/6
f 667/5/6 668/5/6 672/5/6
f 670/4/6 671/4/6 674/4/6
f 674/4/6 671/4/6 675/4/6
f 672/5/6 673/5/6 676/5/6
f 667/5/6 672/5/6 676/5/6
f 676/5/6 673/5/6 677/5/6
f 677/5/6 673/5/6 678/5/6
f 666/5/6 656/5/6 684/5/6
f 684/5/6 656/5/6 685/5/6
f 679/5/6 680/5/6 688/5/6
f 688/5/6 680/5/6 689/5/6
f 682/5/6 683/5/6 691/5/6
f 686/5/6 687/5/6 691/5/6
f 687/5/6 688/5/6 691/5/6
f 681/5/6 682/5/6 691/5/6
f 685/5/6 686/5/6 691/5/6
f 684/5/6 685/5/6 691/5/6
f 683/5/6 684/5/6 691/5/6
f 691/5/6 688/5/6 692/5/6
f 692/5/6 688/5/6 693/5/6
f 693/5/6 688/5/6 694/5/6
f 694/5/6 688/5/6 695/5/6
f 690/4/6 691/4/6 696/4/6
f 691/5/6 692/5/6 697/5/6
f 696/4/6 691/4/6 697/4/6
f 693/5/6 694/5/6 698/5/6
f 698/5/6 694/5/6 699/5/6
f 699/5/6 694/5/6 700/5/6
f 697/5/6 692/5/6 701/5/6
f 701/5/6 692/5/6 702/5/6
f 704/5/6 705/5/6 712/5/6
f 703/5/6 704/5/6 712/5/6
f 712/5/6 705/5/6 713/5/6
f 713/5/6 705/5/6 714/5/6
f 706/5/6 707/5/6 715/5/6
f 715/5/6 707/5/6 716/5/6
f 708/5/6 709/5/6 717/5/6
f 709/4/6 710/4/6 718/4/6
f 717/5/6 709/5/6 718/5/6
f 710/5/6 711/5/6 719/5/6
f 718/4/6 710/4/6 719/4/6
f 719/5/6 711/5/6 720/5/6
f 712/4/6 713/4/6 721/4/6
f 721/4/6 713/4/6 722/4/6
f 717/5/6 718/5/6 723/5/6
f 718/5/6 719/5/6 723/5/6
f 723/5/6 719/5/6 724/5/6
f 725/5/6 726/5/6 729/5/6
f 729/5/6 726/5/6 730/5/6
f 727/5/6 728/5/6 733/5/6
f 733/5/6 728/5/6 734/5/6
f 731/5/6 732/5/6 735/5/6
f 735/5/6 732/5/6 736/5/6
f 737/5/6 738/5/6 739/5/6
f 739/5/6 738/5/6 740/5/6
f 741/5/6 742/5/6 745/5/6
f 745/5/6 742/5/6 746/5/6
f 743/5/6 744/5/6 747/5/6
f 747/5/6 744/5/6 748/5/6
f 748/5/6 749/5/6 752/5/6
f 752/5/6 749/5/6 753/5/6
f 750/5/6 751/5/6 754/5/6
f 754/5/6 751/5/6 755/5/6
f 756/1/6 757/1/6 758/1/6
f 758/1/6 757/1/6 759/1/6
f 760/1/6 761/1/6 762/1/6
f 762/1/6 761/1/6 763/1/6
f 764/2/6 765/2/6 768/2/6
f 768/2/6 765/2/6 769/2/6
f 766/2/6 767/2/6 770/2/6
f 770/2/6 767/2/6 771/2/6
f 772/2/6 773/2/6 776/2/6
f 776/2/6 773/2/6 777/2/6
f 774/2/6 775/2/6 778/2/6
f 778/2/6 775/2/6 779/2/6
f 780/2/6 781/2/6 783/2/6
f 783/2/6 781/2/6 784/2/6
f 782/2/6 783/2/6 786/2/6
f 784/2/6 785/2/6 786/2/6
f 783/2/6 784/2/6 786/2/6
f 786/2/6 785/2/6 787/2/6
f 787/2/6 785/2/6 788/2/6
f 788/2/6 785/2/6 789/2/6
f 787/2/6 788/2/6 790/2/6
f 790/2/6 788/2/6 791/2/6
f 792/2/6 793/2/6 796/2/6
f 796/2/6 793/2/6 797/2/6
f 794/2/6 795/2/6 798/2/6
f 798/2/6 795/2/6 799/2/6
f 800/2/6 801/2/6 804/2/6
f 804/2/6 801/2/6 805/2/6
f 802/2/6 803/2/6 806/2/6
f 806/2/6 803/2/6 807/2/6
f 808/2/6 809/2/6 811/2/6
f 811/2/6 809/2/6 812/2/6
f 810/2/6 811/2/6 814/2/6
f 812/2/6 813/2/6 814/2/6
f 811/2/6 812/2/6 814/2/6
f 814/2/6 813/2/6 815/2/6
f 815/2/6 813/2/6 816/2/6
f 816/2/6 813/2/6 817/2/6
f 815/2/6 816/2/6 818/2/6
f 818/2/6 816/2/6 819/2/6
f 820/1/6 821/1/6 822/1/6
f 822/1/6 821/1/6 823/1/6
f 824/2/6 825/2/6 828/2/6
f 828/2/6 825/2/6 829/2/6
f 826/2/6 827/2/6 830/2/6
f 830/2/6 827/2/6 831/2/6
f 832/2/6 833/2/6 836/2/6
f 836/2/6 833/2/6 837/2/6
f 834/2/6 835/2/6 838/2/6
f 838/2/6 835/2/6 839/2/6
f 840/2/6 841/2/6 843/2/6
f 843/2/6 841/2/6 844/2/6
f 842/2/6 843/2/6 846/2/6
f 844/2/6 845/2/6 846/2/6
f 843/2/6 844/2/6 846/2/6
f 846/2/6 845/2/6 847/2/6
f 847/2/6 845/2/6 848/2/6
f 848/2/6 845/2/6 849/2/6
f 847/2/6 848/2/6 850/2/6
f 850/2/6 848/2/6 851/2/6
