# MagicaVoxel @ Ephtracy

# group
o 

# material
mtllib grass.mtl
usemtl palette

# normals
vn -1 0 0
vn 1 0 0
vn 0 0 1
vn 0 0 -1
vn 0 -1 0
vn 0 1 0

# texcoords
vt 0.142578 0.5
vt 0.373047 0.5
vt 0.623047 0.5
vt 0.654297 0.5
vt 0.791016 0.5
vt 0.818359 0.5
vt 0.896484 0.5
vt 0.958984 0.5
vt 0.994141 0.5

# verts
v -0.5 0 0.5
v -0.5 0 -0.2
v -0.5 0 -0.3
v -0.5 0 -0.4
v -0.5 0 -0.5
v -0.5 0.1 -0.2
v -0.5 0.1 -0.3
v -0.5 0.1 -0.4
v -0.5 0.1 -0.5
v -0.5 0.2 0.3
v -0.5 0.2 0.1
v -0.5 0.3 0.3
v -0.5 0.3 0.1
v -0.5 0.4 0.3
v -0.5 0.4 0.2
v -0.5 0.4 -0.2
v -0.5 0.4 -0.3
v -0.5 0.5 0.3
v -0.5 0.5 0.2
v -0.5 0.5 -0.2
v -0.5 0.5 -0.3
v -0.5 0.6 0.3
v -0.5 0.6 0.1
v -0.5 0.6 0
v -0.5 0.6 -0.5
v -0.5 0.7 0.5
v -0.5 0.7 0.3
v -0.5 0.7 0.1
v -0.5 0.7 0
v -0.5 0.7 -0.2
v -0.5 0.7 -0.3
v -0.5 0.8 0.4
v -0.5 0.8 0.3
v -0.5 0.8 -0.2
v -0.5 0.8 -0.3
v -0.5 0.9 0.4
v -0.5 0.9 0.3
v -0.5 1 0.5
v -0.5 1 -0.5
v 0.5 0 0.5
v 0.5 0 -0.5
v 0.5 0.1 0.2
v 0.5 0.1 0.1
v 0.5 0.2 0.2
v 0.5 0.2 0.1
v 0.5 0.2 -0.4
v 0.5 0.2 -0.5
v 0.5 0.3 -0.4
v 0.5 0.3 -0.5
v 0.5 0.4 0.2
v 0.5 0.4 0.1
v 0.5 0.4 -0.1
v 0.5 0.4 -0.2
v 0.5 0.5 0.2
v 0.5 0.5 0.1
v 0.5 0.5 -0.1
v 0.5 0.5 -0.2
v 0.5 0.6 0.5
v 0.5 0.6 0.4
v 0.5 0.6 0.3
v 0.5 0.6 0
v 0.5 0.6 -0.1
v 0.5 0.6 -0.4
v 0.5 0.7 0.4
v 0.5 0.7 0.3
v 0.5 0.7 0.1
v 0.5 0.7 0
v 0.5 0.7 -0.1
v 0.5 0.7 -0.3
v 0.5 0.7 -0.4
v 0.5 0.7 -0.5
v 0.5 0.8 0.1
v 0.5 0.8 0
v 0.5 0.8 -0.3
v 0.5 0.8 -0.4
v 0.5 1 0.5
v 0.5 1 -0.5
v -0.5 0 0.5
v -0.5 0.7 0.5
v -0.5 1 0.5
v -0.4 0.2 0.5
v -0.4 0.3 0.5
v -0.4 0.5 0.5
v -0.4 0.6 0.5
v -0.4 0.7 0.5
v -0.3 0.2 0.5
v -0.3 0.3 0.5
v -0.3 0.5 0.5
v -0.3 0.6 0.5
v -0.2 0.6 0.5
v -0.2 0.7 0.5
v -0.2 0.9 0.5
v -0.2 1 0.5
v -0.1 0.6 0.5
v -0.1 0.7 0.5
v 0 0.2 0.5
v 0 0.4 0.5
v 0 0.6 0.5
v 0 0.7 0.5
v 0 0.8 0.5
v 0 0.9 0.5
v 0 1 0.5
v 0.1 0 0.5
v 0.1 0.1 0.5
v 0.1 0.3 0.5
v 0.1 0.4 0.5
v 0.1 0.6 0.5
v 0.1 0.7 0.5
v 0.1 0.8 0.5
v 0.1 0.9 0.5
v 0.2 0 0.5
v 0.2 0.1 0.5
v 0.2 0.2 0.5
v 0.2 0.3 0.5
v 0.3 0.3 0.5
v 0.3 0.5 0.5
v 0.3 0.7 0.5
v 0.3 0.8 0.5
v 0.4 0.3 0.5
v 0.4 0.5 0.5
v 0.4 0.7 0.5
v 0.4 0.8 0.5
v 0.5 0 0.5
v 0.5 0.6 0.5
v 0.5 1 0.5
v -0.5 0 -0.5
v -0.5 0.1 -0.5
v -0.5 0.6 -0.5
v -0.5 1 -0.5
v -0.4 0 -0.5
v -0.4 0.1 -0.5
v -0.3 0.6 -0.5
v -0.3 0.7 -0.5
v -0.2 0.3 -0.5
v -0.2 0.4 -0.5
v -0.2 0.5 -0.5
v -0.2 0.6 -0.5
v -0.2 0.7 -0.5
v -0.1 0.3 -0.5
v -0.1 0.4 -0.5
v -0.1 0.5 -0.5
v -0.1 0.6 -0.5
v -0.1 0.9 -0.5
v -0.1 1 -0.5
v 0 0.2 -0.5
v 0 0.3 -0.5
v 0 0.7 -0.5
v 0 0.8 -0.5
v 0.1 0.1 -0.5
v 0.1 0.2 -0.5
v 0.1 0.3 -0.5
v 0.1 0.7 -0.5
v 0.1 0.8 -0.5
v 0.1 0.9 -0.5
v 0.1 1 -0.5
v 0.2 0.1 -0.5
v 0.2 0.2 -0.5
v 0.2 0.5 -0.5
v 0.2 0.6 -0.5
v 0.3 0.5 -0.5
v 0.3 0.6 -0.5
v 0.3 0.7 -0.5
v 0.3 0.9 -0.5
v 0.3 1 -0.5
v 0.4 0.2 -0.5
v 0.4 0.3 -0.5
v 0.4 0.9 -0.5
v 0.4 1 -0.5
v 0.5 0 -0.5
v 0.5 0.2 -0.5
v 0.5 0.3 -0.5
v 0.5 0.7 -0.5
v 0.5 1 -0.5
v -0.5 0 0.5
v 0.1 0 0.5
v 0.2 0 0.5
v 0.5 0 0.5
v 0.1 0 0.4
v 0.2 0 0.4
v -0.5 0 -0.2
v -0.4 0 -0.2
v -0.5 0 -0.3
v -0.4 0 -0.3
v -0.5 0 -0.4
v -0.4 0 -0.4
v -0.5 0 -0.5
v -0.4 0 -0.5
v 0.5 0 -0.5
v -0.5 1 0.5
v -0.2 1 0.5
v 0 1 0.5
v 0.5 1 0.5
v 0 1 0.4
v 0.1 1 0.4
v -0.2 1 0.3
v 0 1 0.3
v 0.1 1 0.3
v 0.2 1 0.3
v 0.4 1 0.3
v -0.4 1 0.1
v -0.3 1 0.1
v -0.2 1 0.1
v 0 1 0.1
v 0.2 1 0.1
v 0.4 1 0.1
v 0.1 1 0
v 0.2 1 0
v -0.4 1 -0.1
v -0.3 1 -0.1
v 0 1 -0.1
v 0.1 1 -0.1
v -0.3 1 -0.2
v -0.2 1 -0.2
v 0 1 -0.2
v 0.1 1 -0.2
v 0.2 1 -0.2
v 0.3 1 -0.2
v -0.3 1 -0.3
v -0.2 1 -0.3
v -0.1 1 -0.3
v 0 1 -0.3
v 0.2 1 -0.3
v 0.3 1 -0.3
v 0.1 1 -0.4
v 0.2 1 -0.4
v 0.3 1 -0.4
v 0.4 1 -0.4
v -0.5 1 -0.5
v -0.1 1 -0.5
v 0.1 1 -0.5
v 0.3 1 -0.5
v 0.4 1 -0.5
v 0.5 1 -0.5

# faces
f 6/2/1 2/2/1 1/2/1
f 6/1/1 3/1/1 2/1/1
f 7/2/1 4/2/1 3/2/1
f 7/1/1 3/1/1 6/1/1
f 8/8/1 5/8/1 4/8/1
f 8/2/1 4/2/1 7/2/1
f 9/8/1 5/8/1 8/8/1
f 10/2/1 7/2/1 6/2/1
f 10/2/1 6/2/1 1/2/1
f 10/2/1 9/2/1 8/2/1
f 10/2/1 8/2/1 7/2/1
f 11/2/1 9/2/1 10/2/1
f 12/2/1 10/2/1 1/2/1
f 12/1/1 11/1/1 10/1/1
f 13/2/1 9/2/1 11/2/1
f 13/1/1 11/1/1 12/1/1
f 14/2/1 12/2/1 1/2/1
f 14/2/1 13/2/1 12/2/1
f 15/2/1 13/2/1 14/2/1
f 16/2/1 9/2/1 13/2/1
f 16/2/1 13/2/1 15/2/1
f 17/2/1 9/2/1 16/2/1
f 18/1/1 15/1/1 14/1/1
f 18/2/1 14/2/1 1/2/1
f 19/2/1 16/2/1 15/2/1
f 19/1/1 15/1/1 18/1/1
f 20/1/1 17/1/1 16/1/1
f 20/2/1 16/2/1 19/2/1
f 21/2/1 9/2/1 17/2/1
f 21/1/1 17/1/1 20/1/1
f 22/2/1 20/2/1 19/2/1
f 22/2/1 19/2/1 18/2/1
f 22/2/1 21/2/1 20/2/1
f 22/2/1 18/2/1 1/2/1
f 23/2/1 21/2/1 22/2/1
f 24/2/1 21/2/1 23/2/1
f 25/2/1 9/2/1 21/2/1
f 25/2/1 21/2/1 24/2/1
f 26/2/1 22/2/1 1/2/1
f 27/7/1 23/7/1 22/7/1
f 27/2/1 22/2/1 26/2/1
f 28/1/1 24/1/1 23/1/1
f 28/7/1 23/7/1 27/7/1
f 29/7/1 25/7/1 24/7/1
f 29/1/1 24/1/1 28/1/1
f 30/7/1 25/7/1 29/7/1
f 31/7/1 25/7/1 30/7/1
f 32/7/1 27/7/1 26/7/1
f 32/7/1 28/7/1 27/7/1
f 32/7/1 29/7/1 28/7/1
f 32/7/1 30/7/1 29/7/1
f 33/7/1 30/7/1 32/7/1
f 34/2/1 31/2/1 30/2/1
f 34/7/1 30/7/1 33/7/1
f 35/7/1 25/7/1 31/7/1
f 35/2/1 31/2/1 34/2/1
f 36/2/1 33/2/1 32/2/1
f 36/7/1 32/7/1 26/7/1
f 37/7/1 34/7/1 33/7/1
f 37/2/1 33/2/1 36/2/1
f 37/7/1 35/7/1 34/7/1
f 38/7/1 36/7/1 26/7/1
f 38/7/1 37/7/1 36/7/1
f 39/7/1 35/7/1 37/7/1
f 39/7/1 37/7/1 38/7/1
f 39/7/1 25/7/1 35/7/1
f 40/2/2 41/2/2 42/2/2
f 42/2/2 41/2/2 43/2/2
f 40/2/2 42/2/2 44/2/2
f 42/8/2 43/8/2 44/8/2
f 43/2/2 41/2/2 45/2/2
f 44/8/2 43/8/2 45/8/2
f 45/2/2 41/2/2 46/2/2
f 46/2/2 41/2/2 47/2/2
f 44/2/2 45/2/2 48/2/2
f 45/2/2 46/2/2 48/2/2
f 46/9/2 47/9/2 48/9/2
f 48/9/2 47/9/2 49/9/2
f 40/2/2 44/2/2 50/2/2
f 44/2/2 48/2/2 50/2/2
f 48/2/2 49/2/2 50/2/2
f 50/2/2 49/2/2 51/2/2
f 51/2/2 49/2/2 52/2/2
f 52/2/2 49/2/2 53/2/2
f 40/2/2 50/2/2 54/2/2
f 50/9/2 51/9/2 54/9/2
f 51/2/2 52/2/2 55/2/2
f 54/9/2 51/9/2 55/9/2
f 52/8/2 53/8/2 56/8/2
f 55/2/2 52/2/2 56/2/2
f 53/2/2 49/2/2 57/2/2
f 56/8/2 53/8/2 57/8/2
f 55/2/2 56/2/2 58/2/2
f 54/2/2 55/2/2 58/2/2
f 56/2/2 57/2/2 58/2/2
f 40/2/2 54/2/2 58/2/2
f 58/2/2 57/2/2 59/2/2
f 59/2/2 57/2/2 60/2/2
f 60/2/2 57/2/2 61/2/2
f 61/2/2 57/2/2 62/2/2
f 57/2/2 49/2/2 63/2/2
f 62/2/2 57/2/2 63/2/2
f 58/7/2 59/7/2 64/7/2
f 59/2/2 60/2/2 64/2/2
f 60/7/2 61/7/2 65/7/2
f 64/2/2 60/2/2 65/2/2
f 65/7/2 61/7/2 66/7/2
f 61/2/2 62/2/2 67/2/2
f 66/7/2 61/7/2 67/7/2
f 62/7/2 63/7/2 68/7/2
f 67/2/2 62/2/2 68/2/2
f 68/7/2 63/7/2 69/7/2
f 63/2/2 49/2/2 70/2/2
f 69/7/2 63/7/2 70/7/2
f 70/2/2 49/2/2 71/2/2
f 65/7/2 66/7/2 72/7/2
f 66/2/2 67/2/2 72/2/2
f 64/7/2 65/7/2 72/7/2
f 68/7/2 69/7/2 73/7/2
f 72/2/2 67/2/2 73/2/2
f 67/7/2 68/7/2 73/7/2
f 69/2/2 70/2/2 74/2/2
f 73/7/2 69/7/2 74/7/2
f 70/7/2 71/7/2 75/7/2
f 74/2/2 70/2/2 75/2/2
f 64/7/2 72/7/2 76/7/2
f 73/7/2 74/7/2 76/7/2
f 74/7/2 75/7/2 76/7/2
f 72/7/2 73/7/2 76/7/2
f 58/7/2 64/7/2 76/7/2
f 75/7/2 71/7/2 77/7/2
f 76/7/2 75/7/2 77/7/2
f 81/2/3 79/2/3 78/2/3
f 82/2/3 79/2/3 81/2/3
f 83/2/3 79/2/3 82/2/3
f 84/2/3 79/2/3 83/2/3
f 85/7/3 80/7/3 79/7/3
f 85/2/3 79/2/3 84/2/3
f 86/2/3 81/2/3 78/2/3
f 86/1/3 82/1/3 81/1/3
f 87/2/3 83/2/3 82/2/3
f 87/1/3 82/1/3 86/1/3
f 88/1/3 84/1/3 83/1/3
f 88/2/3 83/2/3 87/2/3
f 89/7/3 85/7/3 84/7/3
f 89/1/3 84/1/3 88/1/3
f 90/2/3 87/2/3 86/2/3
f 90/7/3 85/7/3 89/7/3
f 90/2/3 89/2/3 88/2/3
f 90/2/3 88/2/3 87/2/3
f 91/7/3 80/7/3 85/7/3
f 91/7/3 85/7/3 90/7/3
f 92/7/3 80/7/3 91/7/3
f 93/7/3 80/7/3 92/7/3
f 94/2/3 90/2/3 86/2/3
f 94/2/3 91/2/3 90/2/3
f 95/7/3 92/7/3 91/7/3
f 95/2/3 91/2/3 94/2/3
f 96/2/3 86/2/3 78/2/3
f 96/2/3 94/2/3 86/2/3
f 97/2/3 94/2/3 96/2/3
f 98/7/3 95/7/3 94/7/3
f 98/2/3 94/2/3 97/2/3
f 99/7/3 92/7/3 95/7/3
f 99/7/3 95/7/3 98/7/3
f 100/7/3 92/7/3 99/7/3
f 101/3/3 93/3/3 92/3/3
f 101/7/3 92/7/3 100/7/3
f 102/3/3 93/3/3 101/3/3
f 103/2/3 96/2/3 78/2/3
f 104/2/3 96/2/3 103/2/3
f 105/9/3 97/9/3 96/9/3
f 106/2/3 98/2/3 97/2/3
f 106/9/3 97/9/3 105/9/3
f 106/2/3 99/2/3 98/2/3
f 107/2/3 99/2/3 106/2/3
f 108/7/3 100/7/3 99/7/3
f 108/2/3 99/2/3 107/2/3
f 109/2/3 101/2/3 100/2/3
f 109/7/3 100/7/3 108/7/3
f 110/7/3 102/7/3 101/7/3
f 110/2/3 101/2/3 109/2/3
f 111/9/3 104/9/3 103/9/3
f 112/2/3 96/2/3 104/2/3
f 112/9/3 104/9/3 111/9/3
f 113/9/3 105/9/3 96/9/3
f 113/2/3 96/2/3 112/2/3
f 114/2/3 107/2/3 106/2/3
f 114/9/3 105/9/3 113/9/3
f 114/2/3 106/2/3 105/2/3
f 115/2/3 112/2/3 111/2/3
f 115/2/3 107/2/3 114/2/3
f 115/2/3 114/2/3 113/2/3
f 115/2/3 113/2/3 112/2/3
f 116/2/3 107/2/3 115/2/3
f 117/7/3 110/7/3 109/7/3
f 117/7/3 108/7/3 107/7/3
f 117/7/3 109/7/3 108/7/3
f 118/7/3 110/7/3 117/7/3
f 119/1/3 116/1/3 115/1/3
f 119/2/3 115/2/3 111/2/3
f 120/2/3 107/2/3 116/2/3
f 120/1/3 116/1/3 119/1/3
f 121/2/3 118/2/3 117/2/3
f 121/7/3 117/7/3 107/7/3
f 122/7/3 110/7/3 118/7/3
f 122/2/3 118/2/3 121/2/3
f 123/2/3 119/2/3 111/2/3
f 123/2/3 120/2/3 119/2/3
f 124/7/3 121/7/3 107/7/3
f 124/2/3 120/2/3 123/2/3
f 124/2/3 107/2/3 120/2/3
f 124/7/3 122/7/3 121/7/3
f 125/7/3 110/7/3 122/7/3
f 125/7/3 122/7/3 124/7/3
f 125/7/3 102/7/3 110/7/3
f 126/8/4 127/8/4 130/8/4
f 127/2/4 128/2/4 131/2/4
f 130/8/4 127/8/4 131/8/4
f 128/7/4 129/7/4 132/7/4
f 131/2/4 128/2/4 132/2/4
f 130/2/4 131/2/4 132/2/4
f 132/7/4 129/7/4 133/7/4
f 130/2/4 132/2/4 134/2/4
f 132/2/4 133/2/4 134/2/4
f 134/2/4 133/2/4 135/2/4
f 135/2/4 133/2/4 136/2/4
f 136/2/4 133/2/4 137/2/4
f 133/7/4 129/7/4 138/7/4
f 137/2/4 133/2/4 138/2/4
f 130/2/4 134/2/4 139/2/4
f 134/8/4 135/8/4 139/8/4
f 135/2/4 136/2/4 140/2/4
f 139/8/4 135/8/4 140/8/4
f 136/8/4 137/8/4 141/8/4
f 140/2/4 136/2/4 141/2/4
f 137/7/4 138/7/4 142/7/4
f 141/8/4 137/8/4 142/8/4
f 138/7/4 129/7/4 143/7/4
f 142/7/4 138/7/4 143/7/4
f 143/7/4 129/7/4 144/7/4
f 139/2/4 140/2/4 145/2/4
f 141/2/4 142/2/4 145/2/4
f 140/2/4 141/2/4 145/2/4
f 130/2/4 139/2/4 145/2/4
f 145/2/4 142/2/4 146/2/4
f 142/7/4 143/7/4 147/7/4
f 147/7/4 143/7/4 148/7/4
f 130/2/4 145/2/4 149/2/4
f 145/8/4 146/8/4 150/8/4
f 149/2/4 145/2/4 150/2/4
f 146/2/4 142/2/4 151/2/4
f 150/8/4 146/8/4 151/8/4
f 142/7/4 147/7/4 152/7/4
f 147/2/4 148/2/4 152/2/4
f 148/7/4 143/7/4 153/7/4
f 152/2/4 148/2/4 153/2/4
f 143/3/4 144/3/4 154/3/4
f 153/7/4 143/7/4 154/7/4
f 154/3/4 144/3/4 155/3/4
f 149/8/4 150/8/4 156/8/4
f 130/2/4 149/2/4 156/2/4
f 150/2/4 151/2/4 157/2/4
f 156/8/4 150/8/4 157/8/4
f 151/2/4 142/2/4 158/2/4
f 157/2/4 151/2/4 158/2/4
f 152/7/4 153/7/4 159/7/4
f 158/2/4 142/2/4 159/2/4
f 142/7/4 152/7/4 159/7/4
f 153/7/4 154/7/4 159/7/4
f 154/7/4 155/7/4 159/7/4
f 157/2/4 158/2/4 160/2/4
f 156/2/4 157/2/4 160/2/4
f 158/8/4 159/8/4 160/8/4
f 159/7/4 155/7/4 161/7/4
f 160/8/4 159/8/4 161/8/4
f 161/7/4 155/7/4 162/7/4
f 162/7/4 155/7/4 163/7/4
f 163/7/4 155/7/4 164/7/4
f 156/2/4 160/2/4 165/2/4
f 160/2/4 161/2/4 165/2/4
f 161/2/4 162/2/4 165/2/4
f 165/2/4 162/2/4 166/2/4
f 163/6/4 164/6/4 167/6/4
f 162/7/4 163/7/4 167/7/4
f 167/6/4 164/6/4 168/6/4
f 130/2/4 156/2/4 169/2/4
f 156/2/4 165/2/4 169/2/4
f 165/9/4 166/9/4 170/9/4
f 169/2/4 165/2/4 170/2/4
f 166/2/4 162/2/4 171/2/4
f 170/9/4 166/9/4 171/9/4
f 167/7/4 168/7/4 172/7/4
f 171/2/4 162/2/4 172/2/4
f 162/7/4 167/7/4 172/7/4
f 172/7/4 168/7/4 173/7/4
f 178/2/5 175/2/5 174/2/5
f 178/9/5 176/9/5 175/9/5
f 179/2/5 177/2/5 176/2/5
f 179/9/5 176/9/5 178/9/5
f 180/2/5 178/2/5 174/2/5
f 180/2/5 179/2/5 178/2/5
f 181/2/5 179/2/5 180/2/5
f 182/1/5 181/1/5 180/1/5
f 183/2/5 179/2/5 181/2/5
f 183/1/5 181/1/5 182/1/5
f 184/2/5 183/2/5 182/2/5
f 185/2/5 179/2/5 183/2/5
f 185/2/5 183/2/5 184/2/5
f 186/8/5 185/8/5 184/8/5
f 187/2/5 179/2/5 185/2/5
f 187/8/5 185/8/5 186/8/5
f 188/2/5 177/2/5 179/2/5
f 188/2/5 179/2/5 187/2/5
f 190/3/6 191/3/6 193/3/6
f 191/7/6 192/7/6 193/7/6
f 193/7/6 192/7/6 194/7/6
f 189/7/6 190/7/6 195/7/6
f 190/3/6 193/3/6 195/3/6
f 193/3/6 194/3/6 195/3/6
f 195/3/6 194/3/6 196/3/6
f 194/7/6 192/7/6 197/7/6
f 196/3/6 194/3/6 197/3/6
f 197/7/6 192/7/6 198/7/6
f 198/7/6 192/7/6 199/7/6
f 189/7/6 195/7/6 200/7/6
f 200/7/6 195/7/6 201/7/6
f 195/5/6 196/5/6 202/5/6
f 201/7/6 195/7/6 202/7/6
f 196/7/6 197/7/6 203/7/6
f 202/5/6 196/5/6 203/5/6
f 197/7/6 198/7/6 203/7/6
f 198/6/6 199/6/6 204/6/6
f 203/7/6 198/7/6 204/7/6
f 199/7/6 192/7/6 205/7/6
f 204/6/6 199/6/6 205/6/6
f 203/7/6 204/7/6 206/7/6
f 201/7/6 202/7/6 206/7/6
f 204/7/6 205/7/6 206/7/6
f 202/7/6 203/7/6 206/7/6
f 206/7/6 205/7/6 207/7/6
f 200/5/6 201/5/6 208/5/6
f 189/7/6 200/7/6 208/7/6
f 201/7/6 206/7/6 209/7/6
f 208/5/6 201/5/6 209/5/6
f 209/7/6 206/7/6 210/7/6
f 206/4/6 207/4/6 211/4/6
f 210/7/6 206/7/6 211/7/6
f 209/7/6 210/7/6 212/7/6
f 208/7/6 209/7/6 212/7/6
f 212/7/6 210/7/6 213/7/6
f 210/4/6 211/4/6 214/4/6
f 213/7/6 210/7/6 214/7/6
f 211/4/6 207/4/6 215/4/6
f 214/4/6 211/4/6 215/4/6
f 207/7/6 205/7/6 216/7/6
f 215/4/6 207/4/6 216/4/6
f 216/7/6 205/7/6 217/7/6
f 212/5/6 213/5/6 218/5/6
f 208/7/6 212/7/6 218/7/6
f 213/7/6 214/7/6 219/7/6
f 218/5/6 213/5/6 219/5/6
f 219/7/6 214/7/6 220/7/6
f 214/3/6 215/3/6 221/3/6
f 220/7/6 214/7/6 221/7/6
f 216/4/6 217/4/6 222/4/6
f 215/4/6 216/4/6 222/4/6
f 217/7/6 205/7/6 223/7/6
f 222/4/6 217/4/6 223/4/6
f 215/4/6 222/4/6 224/4/6
f 221/3/6 215/3/6 224/3/6
f 220/3/6 221/3/6 224/3/6
f 222/7/6 223/7/6 225/7/6
f 224/4/6 222/4/6 225/4/6
f 223/7/6 205/7/6 226/7/6
f 225/7/6 223/7/6 226/7/6
f 205/7/6 192/7/6 227/7/6
f 226/7/6 205/7/6 227/7/6
f 219/7/6 220/7/6 228/7/6
f 208/7/6 218/7/6 228/7/6
f 189/7/6 208/7/6 228/7/6
f 218/7/6 219/7/6 228/7/6
f 220/3/6 224/3/6 229/3/6
f 228/7/6 220/7/6 229/7/6
f 225/7/6 226/7/6 230/7/6
f 229/3/6 224/3/6 230/3/6
f 224/7/6 225/7/6 230/7/6
f 226/6/6 227/6/6 231/6/6
f 230/7/6 226/7/6 231/7/6
f 227/7/6 192/7/6 232/7/6
f 231/6/6 227/6/6 232/6/6
f 232/7/6 192/7/6 233/7/6
